M48
INCH,TZ
T10C0.035
%
T10
X061000Y032000
X061000Y033000
X061000Y034000
X061000Y035000
X061000Y036000
X061000Y037000
X061000Y038000
X061000Y039000
X061000Y040000
X061000Y041000
X061000Y042000
X061000Y043000
X061000Y044000
X070000Y032000
X070000Y033000
X070000Y034000
X070000Y035000
X070000Y036000
X070000Y037000
X070000Y038000
X070000Y039000
X070000Y040000
X070000Y041000
X070000Y042000
X070000Y043000
X070000Y044000
X070000Y045000
X070000Y046000
X070000Y047000
X070000Y048000
X070000Y049000
X070000Y050000
X061000Y045000
X061000Y046000
X061000Y047000
X061000Y048000
X061000Y049000
X061000Y050000
X061000Y031000
X070000Y031000
X081000Y029000
X081000Y030000
X081000Y031000
X081000Y032000
X081000Y033000
X081000Y034000
X081000Y035000
X072000Y033000
X072000Y031000
X080000Y041000
X080000Y038000
X079000Y042000
X079000Y038000
X078000Y041000
X078000Y038000
X077000Y041000
X077000Y038000
X076000Y038000
X076000Y041000
X075000Y040000
X075000Y038000
X074000Y041000
X074000Y038000
X073000Y038000
X073000Y042000
X074000Y032000
X074000Y030000
X078000Y044000
X078000Y045000
X081000Y045000
X081000Y044000
X080000Y052000
X080000Y051000
X080000Y050000
X080000Y049000
X088000Y052000
X088000Y051000
X088000Y050000
X088000Y049000
X087000Y044000
X086000Y044000
X085000Y044000
X087000Y042000
X086000Y042000
X085000Y042000
X089000Y044000
X089000Y043000
X089000Y042000
X089000Y041000
X089000Y040000
X089000Y039000
X066000Y050000
X066000Y053000
X056000Y043000
X056000Y042000
X056000Y044000
X056000Y045000
X056000Y046000
X056000Y047000
X059000Y031000
X059000Y029000
X059000Y041000
X059000Y045000
X064000Y042000
X067000Y042000
X064000Y039000
X064000Y036000
X064000Y035000
X064000Y034000
X064000Y038000
X064000Y037000
X064000Y033000
X064000Y032000
X064000Y031000
X064000Y041000
X064000Y040000
X064000Y043000
X064000Y044000
X066000Y042000
X067000Y040000
X067000Y039000
X067000Y037000
X067000Y036000
X067000Y035000
X067000Y034000
X067000Y033000
X067000Y032000
X067000Y031000
X066000Y040000
X067000Y043000
X067000Y044000
X067000Y045000
X067000Y047000
X067000Y048000
X067000Y049000
X061000Y051000
X062000Y051000
X063000Y051000
M30

